<?xml version="1.0"?>
<svg xmlns="http://www.w3.org/2000/svg" height="512px" viewBox="0 0 512 512.00193" width="512px"><path d="m498.828125 435.457031-138.582031-138.578125c14.871094-23.976562 24.273437-50.929687 27.613281-79.65625 4.953125-42.585937-4.410156-86.167968-26.367187-122.714844-2.84375-4.734374-8.988282-6.265624-13.722657-3.421874-4.730469 2.84375-6.265625 8.988281-3.421875 13.722656 41.3125 68.761718 30.492188 156.457031-26.3125 213.261718-32.972656 32.976563-76.816406 51.136719-123.449218 51.136719-46.636719 0-90.476563-18.160156-123.453126-51.136719-32.976562-32.972656-51.132812-76.816406-51.132812-123.449218 0-46.632813 18.160156-90.476563 51.132812-123.449219 56.117188-56.117187 143.089844-67.367187 211.503907-27.359375 4.765625 2.789062 10.890625 1.183594 13.679687-3.582031 2.789063-4.769531 1.183594-10.894531-3.585937-13.679688-76.253907-44.597656-173.195313-32.0625-235.738281 30.476563-36.75 36.753906-56.992188 85.617187-56.992188 137.59375 0 51.972656 20.242188 100.839844 56.992188 137.589844 36.753906 36.753906 85.617187 56.992187 137.59375 56.992187 51.976562 0 100.839843-20.238281 137.59375-56.992187 5.925781-5.925782 11.417968-12.152344 16.464843-18.652344l136.042969 136.039062c9.683594 9.6875 9.683594 25.445313 0 35.128906-4.691406 4.691407-10.929688 7.277344-17.5625 7.277344-6.636719 0-12.875-2.585937-17.5625-7.277344l-85.453125-85.453124c-3.90625-3.902344-10.238281-3.902344-14.140625 0-3.90625 3.90625-3.90625 10.238281 0 14.144531l85.449219 85.449219c8.46875 8.46875 19.730469 13.132812 31.707031 13.132812s23.234375-4.660156 31.703125-13.132812c17.480469-17.480469 17.480469-45.929688 0-63.410157zm0 0" fill="#7e0c0c"/><path d="m329.894531 369.210938c-2.628906 0-5.207031 1.058593-7.066406 2.929687-1.859375 1.859375-2.929687 4.429687-2.929687 7.066406 0 2.632813 1.070312 5.210938 2.929687 7.070313s4.4375 2.929687 7.066406 2.929687c2.632813 0 5.210938-1.070312 7.070313-2.929687s2.929687-4.4375 2.929687-7.070313c0-2.640625-1.070312-5.207031-2.929687-7.066406-1.859375-1.871094-4.4375-2.929687-7.070313-2.929687zm0 0" fill="#7e0c0c"/><path d="m47.996094 194.621094c0 80.828125 65.761718 146.585937 146.589844 146.585937 80.828124 0 146.585937-65.757812 146.585937-146.585937s-65.757813-146.589844-146.585937-146.589844c-80.828126 0-146.589844 65.757812-146.589844 146.589844zm159.90625 71.332031c-5.199219-11.878906-18.210938-8.503906-24.464844-6.878906-2.480469.644531-7.625 1.976562-8.988281 1.4375.578125-1.796875 3.511719-5.371094 5.144531-7.359375 4.230469-5.15625 9.027344-11.003906 7.171875-18.433594-1.0625-4.253906-4.125-7.757812-7.671875-11.8125-9.128906-10.449219-8.777344-12.578125-7.003906-14.558594 1.277344-.269531 5.097656.652344 7.410156 1.207032 6.542969 1.570312 15.507812 3.722656 24.0625-.980469 11.351562-6.246094 10.039062-17.769531 9.335938-23.957031-.199219-1.75-.519532-4.574219-.308594-5.660157 1.820312.816407 5.074218 3.34375 7.128906 4.941407 6.398438 4.976562 14.355469 11.167968 24.273438 9.871093 6.609374-.863281 12.492187-4.925781 18.179687-8.851562 3.0625-2.113281 9.441406-6.515625 11.394531-6.234375.042969.019531.210938.125.472656.367187 1.503907 1.4375.566407 5.140625-1.964843 12.394531-2.664063 7.628907-5.976563 17.125-1 25.722657 3.484375 6.011719 8.855469 9.628906 13.167969 12.535156 6.578124 4.425781 6.699218 5.203125 6.402343 7.265625-1.582031.273438-4.597656.191406-6.519531.136719-6.402344-.171875-14.375-.394531-19.894531 5.628906-6.320313 6.894531-3.621094 16.523437-1.007813 25.835937 1.074219 3.828126 3.015625 10.742188 2.609375 13.4375-.398437.179688-.582031.199219-.578125.199219-.9375-.105469-3.621094-2.28125-5.222656-3.582031-5.105469-4.144531-12.824219-10.402344-24.039062-8.246094-10.058594 1.933594-15.394532 9.441406-19.289063 14.921875-1.339844 1.890625-3.589844 5.050781-4.554687 5.4375-.003907 0-.621094.066407-2.140626-.542969-.625-.253906-.929687-.472656-.957031-.472656-.503906-1.019531-.089843-4.867187.15625-7.164062.554688-5.125 1.179688-10.929688-1.304687-16.605469zm113.273437-71.332031c0 34.039062-13.511719 64.980468-35.445312 87.753906.234375-6.773438-1.761719-13.898438-3.25-19.207031-.511719-1.8125-1.167969-4.152344-1.617188-6.125.933594.007812 1.90625.03125 2.710938.054687 7.25.195313 24.207031.664063 26.820312-16.980468 2.28125-15.378907-8.523437-22.65625-14.980469-27.003907-2.917968-1.964843-5.683593-3.824219-6.917968-5.78125-.203125-1.667969 1.457031-6.425781 2.460937-9.300781 3.179688-9.113281 7.984375-22.878906-3.125-33.460938-5.929687-5.648437-13.6875-7.277343-21.847656-4.59375-5.519531 1.820313-10.648437 5.359376-15.171875 8.484376-3.023438 2.085937-7.59375 5.242187-9.40625 5.476562-1.632812.214844-6.886719-3.863281-9.40625-5.824219-6.933594-5.390625-18.539062-14.414062-30.5625-6-10.394531 7.277344-9.101562 18.648438-8.40625 24.761719.152344 1.351562.367188 3.253906.347656 4.394531-1.996094.566407-5.808594-.347656-9.207031-1.164062-7.363281-1.765625-18.488281-4.4375-26.875 4.78125-6.546875 7.195312-8.050781 16.195312-4.230469 25.339843 2.628906 6.292969 7.253906 11.582032 10.96875 15.835938.589844.671875 1.269532 1.453125 1.890625 2.1875-.597656.761719-1.257812 1.566406-1.792969 2.21875-5.152343 6.28125-15.875 19.351562-5.414062 32.425781 8.785156 10.980469 21.90625 7.574219 29.75 5.535157.335938-.085938.703125-.183594 1.085938-.28125-.070313.796874-.15625 1.585937-.230469 2.269531-.769531 7.152343-2.371094 22.035156 13.203125 28.320312 3.585937 1.445313 6.796875 2.058594 9.683594 2.058594 10.910156-.003906 17.109374-8.722656 20.796874-13.910156 2.851563-4.011719 4.726563-6.476563 6.761719-6.867188 1.785157-.351562 3.398438.675781 7.664063 4.136719 3.214844 2.609375 8.082031 6.550781 14.3125 7.722656-19.480469 12.238282-42.503906 19.332032-67.160156 19.332032-69.800782 0-126.589844-56.789063-126.589844-126.589844 0-69.800782 56.789062-126.589844 126.589844-126.589844 69.800781 0 126.589843 56.785156 126.589843 126.589844zm0 0" fill="#7e0c0c"/><path d="m318.972656 72.109375c1.957032 1.988281 4.539063 2.980469 7.125 2.980469 2.53125 0 5.066406-.957032 7.015625-2.875 3.933594-3.875 3.980469-10.207032.105469-14.140625-.347656-.351563-.691406-.699219-1.039062-1.046875-3.90625-3.90625-10.238282-3.90625-14.144532 0-3.90625 3.902344-3.902344 10.234375 0 14.140625zm0 0" fill="#7e0c0c"/><path d="m244.484375 226.269531c2.628906 0 5.207031-1.070312 7.066406-2.929687 1.863281-1.859375 2.929688-4.441406 2.929688-7.070313 0-2.628906-1.066407-5.210937-2.929688-7.070312-1.859375-1.859375-4.4375-2.929688-7.066406-2.929688-2.632813 0-5.210937 1.070313-7.070313 2.929688-1.859374 1.859375-2.929687 4.429687-2.929687 7.070312 0 2.628907 1.070313 5.210938 2.929687 7.070313 1.859376 1.859375 4.4375 2.929687 7.070313 2.929687zm0 0" fill="#7e0c0c"/><path d="m217.363281 253.386719c2.632813 0 5.199219-1.058594 7.070313-2.929688 1.859375-1.859375 2.929687-4.4375 2.929687-7.070312 0-2.628907-1.070312-5.207031-2.929687-7.066407-1.871094-1.863281-4.4375-2.933593-7.070313-2.933593-2.636719 0-5.21875 1.070312-7.078125 2.933593-1.859375 1.859376-2.929687 4.4375-2.929687 7.066407 0 2.640625 1.070312 5.210937 2.929687 7.070312 1.871094 1.871094 4.441406 2.929688 7.078125 2.929688zm0 0" fill="#7e0c0c"/><path d="m115.992188 193.394531c-16.539063 0-29.996094 13.457031-29.996094 30 0 16.539063 13.457031 29.996094 29.996094 29.996094 16.539062 0 29.996093-13.457031 29.996093-29.996094 0-16.542969-13.457031-30-29.996093-30zm0 40c-5.511719 0-10-4.488281-10-10 0-5.515625 4.488281-10 10-10 5.515624 0 10 4.484375 10 10 0 5.511719-4.484376 10-10 10zm0 0" fill="#7e0c0c"/><path d="m144.589844 123.527344c0 16.539062 13.457031 29.996094 29.996094 29.996094 16.542968 0 30-13.457032 30-29.996094 0-16.542969-13.457032-30-30-30-16.539063 0-29.996094 13.457031-29.996094 30zm39.996094 0c0 5.511718-4.484376 9.996094-10 9.996094-5.511719 0-10-4.484376-10-9.996094 0-5.515625 4.488281-10 10-10 5.515624 0 10 4.484375 10 10zm0 0" fill="#7e0c0c"/><path d="m109.992188 138.027344c2.628906 0 5.210937-1.070313 7.070312-2.929688 1.859375-1.863281 2.929688-4.441406 2.929688-7.070312s-1.070313-5.210938-2.929688-7.070313-4.441406-2.929687-7.070312-2.929687c-2.628907 0-5.210938 1.070312-7.070313 2.929687s-2.929687 4.441407-2.929687 7.070313 1.070312 5.207031 2.929687 7.070312c1.859375 1.859375 4.441406 2.929688 7.070313 2.929688zm0 0" fill="#7e0c0c"/><path d="m135.992188 162.523438c-2.632813 0-5.210938 1.070312-7.070313 2.929687s-2.929687 4.441406-2.929687 7.070313c0 2.628906 1.070312 5.210937 2.929687 7.070312s4.4375 2.929688 7.070313 2.929688c2.628906 0 5.207031-1.070313 7.066406-2.929688 1.863281-1.859375 2.929687-4.441406 2.929687-7.070312 0-2.640626-1.066406-5.210938-2.929687-7.070313-1.859375-1.859375-4.4375-2.929687-7.066406-2.929687zm0 0" fill="#7e0c0c"/><path d="m249.484375 133.527344c2.628906 0 5.207031-1.070313 7.066406-2.929688s2.929688-4.441406 2.929688-7.070312-1.070313-5.210938-2.929688-7.070313-4.4375-2.929687-7.066406-2.929687c-2.632813 0-5.210937 1.070312-7.070313 2.929687-1.859374 1.859375-2.929687 4.441407-2.929687 7.070313s1.070313 5.210937 2.929687 7.070312c1.859376 1.859375 4.4375 2.929688 7.070313 2.929688zm0 0" fill="#7e0c0c"/></svg>
